<?xml version="1.0" encoding="UTF-8" standalone="no"?>
<svg
   xmlns:rendltx="http://NOTSET"
   xmlns:dc="http://purl.org/dc/elements/1.1/"
   xmlns:cc="http://creativecommons.org/ns#"
   xmlns:rdf="http://www.w3.org/1999/02/22-rdf-syntax-ns#"
   xmlns:svg="http://www.w3.org/2000/svg"
   xmlns="http://www.w3.org/2000/svg"
   xmlns:xlink="http://www.w3.org/1999/xlink"
   id="svg8"
   version="1.1"
   viewBox="0 0 117.1582 89.52932"
   height="89.52932mm"
   width="117.1582mm">
  <defs
     id="defs2">
    <marker
       orient="auto"
       refY="0"
       refX="0"
       id="marker1356"
       style="overflow:visible">
      <path
         id="path1354"
         d="m -2.5,-1 c 0,2.76 -2.24,5 -5,5 -2.76,0 -5,-2.24 -5,-5 0,-2.76 2.24,-5 5,-5 2.76,0 5,2.24 5,5 z"
         style="fill:#000000;fill-opacity:1;fill-rule:evenodd;stroke:#000000;stroke-width:1.00000003pt;stroke-opacity:1"
         transform="matrix(0.4,0,0,0.4,2.96,0.4)" />
    </marker>
    <marker
       orient="auto"
       refY="0"
       refX="0"
       id="marker1330"
       style="overflow:visible">
      <path
         id="path1328"
         d="m -2.5,-1 c 0,2.76 -2.24,5 -5,5 -2.76,0 -5,-2.24 -5,-5 0,-2.76 2.24,-5 5,-5 2.76,0 5,2.24 5,5 z"
         style="fill:#000000;fill-opacity:1;fill-rule:evenodd;stroke:#000000;stroke-width:1.00000003pt;stroke-opacity:1"
         transform="matrix(0.4,0,0,0.4,2.96,0.4)" />
    </marker>
    <marker
       orient="auto"
       refY="0"
       refX="0"
       id="DotM"
       style="overflow:visible">
      <path
         id="path1116"
         d="m -2.5,-1 c 0,2.76 -2.24,5 -5,5 -2.76,0 -5,-2.24 -5,-5 0,-2.76 2.24,-5 5,-5 2.76,0 5,2.24 5,5 z"
         style="fill:#000000;fill-opacity:1;fill-rule:evenodd;stroke:#000000;stroke-width:1.00000003pt;stroke-opacity:1"
         transform="matrix(0.4,0,0,0.4,2.96,0.4)" />
    </marker>
  </defs>
  <metadata
     id="metadata5">
    <rdf:RDF>
      <cc:Work
         rdf:about="">
        <dc:format>image/svg+xml</dc:format>
        <dc:type
           rdf:resource="http://purl.org/dc/dcmitype/StillImage" />
        <dc:title></dc:title>
      </cc:Work>
    </rdf:RDF>
  </metadata>
  <g
     transform="translate(-29.388435,-108.32452)"
     id="layer1">
    <path
       style="fill:none;stroke:#000000;stroke-width:0.5;stroke-linecap:round;stroke-linejoin:round;stroke-miterlimit:4;stroke-dasharray:none;stroke-opacity:1;marker-start:url(#DotM);marker-mid:url(#marker1330);marker-end:url(#marker1356)"
       d="m 32.505951,117.83928 20.410715,62.74404 13.607142,-49.1369 26.458333,57.45238 25.702379,-71.05952 25.3244,58.20832"
       id="path1050" />
  </g>
  <g
     transform="translate(-29.388435,-108.32452)"
     id="layer2"
     style="display:none">
    <flowRoot
       xml:space="preserve"
       id="flowRoot892"
       style="font-style:normal;font-weight:normal;font-size:40px;line-height:1.25;font-family:sans-serif;letter-spacing:0px;word-spacing:0px;fill:#000000;fill-opacity:1;stroke:none"
       transform="scale(0.26458333)"><flowRegion
         id="flowRegion894"><rect
           id="rect896"
           width="280"
           height="248.57143"
           x="128.57143"
           y="362.51965" /></flowRegion><flowPara
         id="flowPara898" /></flowRoot>    <text
       xml:space="preserve"
       style="font-style:normal;font-weight:normal;font-size:10.58333302px;line-height:1.25;font-family:sans-serif;letter-spacing:0px;word-spacing:0px;fill:#000000;fill-opacity:1;stroke:none;stroke-width:0.26458332"
       x="22.584076"
       y="112.64211"
       id="text1445"><tspan
         x="22.584076"
         y="112.64211"
         style="font-size:7.05555534px;stroke-width:0.26458332"
         id="tspan1447">$ j_1 $</tspan></text>
    <text
       xml:space="preserve"
       style="font-style:normal;font-weight:normal;font-size:10.58333302px;line-height:1.25;font-family:sans-serif;letter-spacing:0px;word-spacing:0px;fill:#000000;fill-opacity:1;stroke:none;stroke-width:0.26458332"
       x="39.841789"
       y="190.12895"
       id="text1445-3"><tspan
         x="39.841789"
         y="190.12895"
         style="font-size:7.05555534px;stroke-width:0.26458332"
         id="tspan1447-9">$ j_2 $</tspan></text>
    <text
       xml:space="preserve"
       style="font-style:normal;font-weight:normal;font-size:10.58333302px;line-height:1.25;font-family:sans-serif;letter-spacing:0px;word-spacing:0px;fill:#000000;fill-opacity:1;stroke:none;stroke-width:0.26458332"
       x="104.85369"
       y="111.88789"
       id="text1445-7"><tspan
         x="104.85369"
         y="111.88789"
         style="font-size:7.05555534px;stroke-width:0.26458332"
         id="tspan1447-1">$ j_5 $</tspan></text>
    <text
       xml:space="preserve"
       style="font-style:normal;font-weight:normal;font-size:10.58333302px;line-height:1.25;font-family:sans-serif;letter-spacing:0px;word-spacing:0px;fill:#000000;fill-opacity:1;stroke:none;stroke-width:0.26458332"
       x="62.520363"
       y="125.873"
       id="text1445-2"><tspan
         x="62.520363"
         y="125.873"
         style="font-size:7.05555534px;stroke-width:0.26458332"
         id="tspan1447-13">$ j_3 $</tspan></text>
    <text
       xml:space="preserve"
       style="font-style:normal;font-weight:normal;font-size:10.58333302px;line-height:1.25;font-family:sans-serif;letter-spacing:0px;word-spacing:0px;fill:#000000;fill-opacity:1;stroke:none;stroke-width:0.26458332"
       x="88.22274"
       y="199.57835"
       id="text1445-6"><tspan
         x="88.22274"
         y="199.57835"
         style="font-size:7.05555534px;stroke-width:0.26458332"
         id="tspan1447-5">$ j_4 $</tspan></text>
    <text
       xml:space="preserve"
       style="font-style:normal;font-weight:normal;font-size:10.58333302px;line-height:1.25;font-family:sans-serif;letter-spacing:0px;word-spacing:0px;fill:#000000;fill-opacity:1;stroke:none;stroke-width:0.26458332"
       x="132.82393"
       y="189.373"
       id="text1445-8"><tspan
         x="132.82393"
         y="189.373"
         style="font-size:7.05555534px;stroke-width:0.26458332"
         id="tspan1447-6">$ j_6 $</tspan></text>
  </g>
  <g
     transform="translate(-29.388435,-108.32452)"
     id="ltx-render-layer"
     rendltx:preamble=""
     rendltx:scale="1.0"
     rendltx:depth="0"
     rendltx:fontsize="20"
     rendltx:newline="False"
     rendltx:math="False">
    <g
       transform="matrix(0.352778,0,0,0.352778,29.482142,113.11458)"
       id="lx-text1445">
      <defs
         id="defs2347">
        <g
           id="g2345">
          <symbol
             style="overflow:visible"
             overflow="visible"
             id="lx-text1445-glyph0-0">
            <path
               style="stroke:none"
               d=""
               id="path2333" />
          </symbol>
          <symbol
             style="overflow:visible"
             overflow="visible"
             id="lx-text1445-glyph0-1">
            <path
               style="stroke:none"
               d="M 7.234375,-6.546875 C 7.3125,-6.875 7.3125,-7.171875 7.3125,-7.25 c 0,-1.203125 -0.890625,-1.859375 -1.8125,-1.859375 -2.09375,0 -3.203125,3.015625 -3.203125,3.15625 0,0.109375 0.078125,0.1875 0.203125,0.1875 0.171875,0 0.1875,-0.078125 0.28125,-0.28125 0.828125,-2.015625 1.859375,-2.65625 2.65625,-2.65625 0.421875,0 0.65625,0.234375 0.65625,0.953125 0,0.5 -0.0625,0.703125 -0.140625,1.078125 l -1.96875,7.78125 c -0.390625,1.53125 -1.359375,2.6875 -2.5,2.6875 -0.078125,0 -0.515625,0 -0.90625,-0.203125 0.5,-0.109375 0.890625,-0.5 0.890625,-0.984375 0,-0.34375 -0.25,-0.671875 -0.703125,-0.671875 -0.53125,0 -1.03125,0.453125 -1.03125,1.078125 0,0.84375 0.90625,1.203125 1.75,1.203125 1.421875,0 3.3125,-1.0625 3.828125,-3.125 z m 0.84375,-6.34375 c 0,-0.515625 -0.4375,-0.6875 -0.6875,-0.6875 -0.546875,0 -1.03125,0.546875 -1.03125,1 0,0.3125 0.25,0.6875 0.703125,0.6875 0.484375,0 1.015625,-0.46875 1.015625,-1 z m 0,0"
               id="path2336" />
          </symbol>
          <symbol
             style="overflow:visible"
             overflow="visible"
             id="lx-text1445-glyph1-0">
            <path
               style="stroke:none"
               d=""
               id="path2339" />
          </symbol>
          <symbol
             style="overflow:visible"
             overflow="visible"
             id="lx-text1445-glyph1-1">
            <path
               style="stroke:none"
               d="m 4.125,-9.1875 c 0,-0.34375 0,-0.34375 -0.28125,-0.34375 C 3.5,-9.15625 2.78125,-8.625 1.3125,-8.625 v 0.421875 c 0.328125,0 1.046875,0 1.828125,-0.375 v 7.46875 c 0,0.515625 -0.046875,0.6875 -1.296875,0.6875 H 1.390625 V 0 c 0.390625,-0.03125 1.78125,-0.03125 2.25,-0.03125 0.46875,0 1.859375,0 2.234375,0.03125 V -0.421875 H 5.4375 c -1.265625,0 -1.3125,-0.171875 -1.3125,-0.6875 z m 0,0"
               id="path2342" />
          </symbol>
        </g>
      </defs>
      <g
         id="lx-text1445-surface1">
        <g
           style="fill:#000000;fill-opacity:1"
           id="g2351">
          <use
             height="100%"
             width="100%"
             xlink:href="#lx-text1445-glyph0-1"
             x="0"
             y="0"
             id="use2349" />
        </g>
        <g
           style="fill:#000000;fill-opacity:1"
           id="g2355">
          <use
             height="100%"
             width="100%"
             xlink:href="#lx-text1445-glyph1-1"
             x="8.3699999"
             y="3.099"
             id="use2353" />
        </g>
      </g>
    </g>
    <g
       transform="matrix(0.352778,0,0,0.352778,50.330628,188.71154)"
       id="lx-text1445-3">
      <defs
         id="defs2373">
        <g
           id="g2371">
          <symbol
             style="overflow:visible"
             overflow="visible"
             id="lx-text1445-3-glyph0-0">
            <path
               style="stroke:none"
               d=""
               id="path2359" />
          </symbol>
          <symbol
             style="overflow:visible"
             overflow="visible"
             id="lx-text1445-3-glyph0-1">
            <path
               style="stroke:none"
               d="M 7.234375,-6.546875 C 7.3125,-6.875 7.3125,-7.171875 7.3125,-7.25 c 0,-1.203125 -0.890625,-1.859375 -1.8125,-1.859375 -2.09375,0 -3.203125,3.015625 -3.203125,3.15625 0,0.109375 0.078125,0.1875 0.203125,0.1875 0.171875,0 0.1875,-0.078125 0.28125,-0.28125 0.828125,-2.015625 1.859375,-2.65625 2.65625,-2.65625 0.421875,0 0.65625,0.234375 0.65625,0.953125 0,0.5 -0.0625,0.703125 -0.140625,1.078125 l -1.96875,7.78125 c -0.390625,1.53125 -1.359375,2.6875 -2.5,2.6875 -0.078125,0 -0.515625,0 -0.90625,-0.203125 0.5,-0.109375 0.890625,-0.5 0.890625,-0.984375 0,-0.34375 -0.25,-0.671875 -0.703125,-0.671875 -0.53125,0 -1.03125,0.453125 -1.03125,1.078125 0,0.84375 0.90625,1.203125 1.75,1.203125 1.421875,0 3.3125,-1.0625 3.828125,-3.125 z m 0.84375,-6.34375 c 0,-0.515625 -0.4375,-0.6875 -0.6875,-0.6875 -0.546875,0 -1.03125,0.546875 -1.03125,1 0,0.3125 0.25,0.6875 0.703125,0.6875 0.484375,0 1.015625,-0.46875 1.015625,-1 z m 0,0"
               id="path2362" />
          </symbol>
          <symbol
             style="overflow:visible"
             overflow="visible"
             id="lx-text1445-3-glyph1-0">
            <path
               style="stroke:none"
               d=""
               id="path2365" />
          </symbol>
          <symbol
             style="overflow:visible"
             overflow="visible"
             id="lx-text1445-3-glyph1-1">
            <path
               style="stroke:none"
               d="M 6.3125,-2.40625 H 6 c -0.046875,0.234375 -0.15625,1.03125 -0.3125,1.265625 -0.09375,0.125 -0.90625,0.125 -1.34375,0.125 H 1.6875 c 0.390625,-0.328125 1.265625,-1.25 1.640625,-1.59375 2.1875,-2.015625 2.984375,-2.75 2.984375,-4.171875 0,-1.65625 -1.3125,-2.75 -2.96875,-2.75 -1.671875,0 -2.640625,1.40625 -2.640625,2.640625 0,0.734375 0.625,0.734375 0.671875,0.734375 0.296875,0 0.671875,-0.21875 0.671875,-0.671875 C 2.046875,-7.234375 1.78125,-7.5 1.375,-7.5 1.25,-7.5 1.21875,-7.5 1.171875,-7.484375 1.453125,-8.46875 2.21875,-9.125 3.15625,-9.125 4.375,-9.125 5.125,-8.109375 5.125,-6.78125 5.125,-5.5625 4.421875,-4.5 3.59375,-3.578125 L 0.703125,-0.34375 V 0 H 5.9375 Z m 0,0"
               id="path2368" />
          </symbol>
        </g>
      </defs>
      <g
         id="lx-text1445-3-surface1">
        <g
           style="fill:#000000;fill-opacity:1"
           id="g2377">
          <use
             height="100%"
             width="100%"
             xlink:href="#lx-text1445-3-glyph0-1"
             x="0"
             y="0"
             id="use2375" />
        </g>
        <g
           style="fill:#000000;fill-opacity:1"
           id="g2381">
          <use
             height="100%"
             width="100%"
             xlink:href="#lx-text1445-3-glyph1-1"
             x="8.3699999"
             y="3.099"
             id="use2379" />
        </g>
      </g>
    </g>
    <g
       transform="matrix(0.352778,0,0,0.352778,115.62601,113.39979)"
       id="lx-text1445-7">
      <defs
         id="defs2399">
        <g
           id="g2397">
          <symbol
             style="overflow:visible"
             overflow="visible"
             id="lx-text1445-7-glyph0-0">
            <path
               style="stroke:none"
               d=""
               id="path2385" />
          </symbol>
          <symbol
             style="overflow:visible"
             overflow="visible"
             id="lx-text1445-7-glyph0-1">
            <path
               style="stroke:none"
               d="M 7.234375,-6.546875 C 7.3125,-6.875 7.3125,-7.171875 7.3125,-7.25 c 0,-1.203125 -0.890625,-1.859375 -1.8125,-1.859375 -2.09375,0 -3.203125,3.015625 -3.203125,3.15625 0,0.109375 0.078125,0.1875 0.203125,0.1875 0.171875,0 0.1875,-0.078125 0.28125,-0.28125 0.828125,-2.015625 1.859375,-2.65625 2.65625,-2.65625 0.421875,0 0.65625,0.234375 0.65625,0.953125 0,0.5 -0.0625,0.703125 -0.140625,1.078125 l -1.96875,7.78125 c -0.390625,1.53125 -1.359375,2.6875 -2.5,2.6875 -0.078125,0 -0.515625,0 -0.90625,-0.203125 0.5,-0.109375 0.890625,-0.5 0.890625,-0.984375 0,-0.34375 -0.25,-0.671875 -0.703125,-0.671875 -0.53125,0 -1.03125,0.453125 -1.03125,1.078125 0,0.84375 0.90625,1.203125 1.75,1.203125 1.421875,0 3.3125,-1.0625 3.828125,-3.125 z m 0.84375,-6.34375 c 0,-0.515625 -0.4375,-0.6875 -0.6875,-0.6875 -0.546875,0 -1.03125,0.546875 -1.03125,1 0,0.3125 0.25,0.6875 0.703125,0.6875 0.484375,0 1.015625,-0.46875 1.015625,-1 z m 0,0"
               id="path2388" />
          </symbol>
          <symbol
             style="overflow:visible"
             overflow="visible"
             id="lx-text1445-7-glyph1-0">
            <path
               style="stroke:none"
               d=""
               id="path2391" />
          </symbol>
          <symbol
             style="overflow:visible"
             overflow="visible"
             id="lx-text1445-7-glyph1-1">
            <path
               style="stroke:none"
               d="M 1.84375,-8.21875 C 2.453125,-8.015625 2.953125,-8 3.109375,-8 c 1.625,0 2.65625,-1.1875 2.65625,-1.390625 0,-0.0625 -0.03125,-0.140625 -0.109375,-0.140625 -0.03125,0 -0.0625,0 -0.1875,0.0625 -0.8125,0.34375 -1.5,0.390625 -1.875,0.390625 -0.9375,0 -1.609375,-0.28125 -1.890625,-0.40625 -0.09375,-0.046875 -0.125,-0.046875 -0.140625,-0.046875 -0.109375,0 -0.109375,0.09375 -0.109375,0.328125 v 4.25 c 0,0.265625 0,0.34375 0.171875,0.34375 0.0625,0 0.078125,-0.015625 0.21875,-0.1875 C 2.25,-5.375 2.921875,-5.71875 3.640625,-5.71875 c 0.765625,0 1.140625,0.703125 1.25,0.9375 0.25,0.5625 0.265625,1.265625 0.265625,1.8125 0,0.546875 0,1.359375 -0.40625,2 -0.3125,0.53125 -0.875,0.875 -1.515625,0.875 -0.9375,0 -1.875,-0.640625 -2.125,-1.6875 0.0625,0.03125 0.15625,0.046875 0.21875,0.046875 0.25,0 0.640625,-0.140625 0.640625,-0.625 C 1.96875,-2.765625 1.6875,-3 1.328125,-3 c -0.25,0 -0.625,0.125 -0.625,0.6875 0,1.21875 0.96875,2.609375 2.5625,2.609375 1.625,0 3.046875,-1.359375 3.046875,-3.1875 0,-1.703125 -1.15625,-3.125 -2.65625,-3.125 -0.8125,0 -1.453125,0.359375 -1.8125,0.765625 z m 0,0"
               id="path2394" />
          </symbol>
        </g>
      </defs>
      <g
         id="lx-text1445-7-surface1">
        <g
           style="fill:#000000;fill-opacity:1"
           id="g2403">
          <use
             height="100%"
             width="100%"
             xlink:href="#lx-text1445-7-glyph0-1"
             x="0"
             y="0"
             id="use2401" />
        </g>
        <g
           style="fill:#000000;fill-opacity:1"
           id="g2407">
          <use
             height="100%"
             width="100%"
             xlink:href="#lx-text1445-7-glyph1-1"
             x="8.3699999"
             y="3.099"
             id="use2405" />
        </g>
      </g>
    </g>
    <g
       transform="matrix(0.352778,0,0,0.352778,64.032268,127.66839)"
       id="lx-text1445-2">
      <defs
         id="defs2425">
        <g
           id="g2423">
          <symbol
             style="overflow:visible"
             overflow="visible"
             id="lx-text1445-2-glyph0-0">
            <path
               style="stroke:none"
               d=""
               id="path2411" />
          </symbol>
          <symbol
             style="overflow:visible"
             overflow="visible"
             id="lx-text1445-2-glyph0-1">
            <path
               style="stroke:none"
               d="M 7.234375,-6.546875 C 7.3125,-6.875 7.3125,-7.171875 7.3125,-7.25 c 0,-1.203125 -0.890625,-1.859375 -1.8125,-1.859375 -2.09375,0 -3.203125,3.015625 -3.203125,3.15625 0,0.109375 0.078125,0.1875 0.203125,0.1875 0.171875,0 0.1875,-0.078125 0.28125,-0.28125 0.828125,-2.015625 1.859375,-2.65625 2.65625,-2.65625 0.421875,0 0.65625,0.234375 0.65625,0.953125 0,0.5 -0.0625,0.703125 -0.140625,1.078125 l -1.96875,7.78125 c -0.390625,1.53125 -1.359375,2.6875 -2.5,2.6875 -0.078125,0 -0.515625,0 -0.90625,-0.203125 0.5,-0.109375 0.890625,-0.5 0.890625,-0.984375 0,-0.34375 -0.25,-0.671875 -0.703125,-0.671875 -0.53125,0 -1.03125,0.453125 -1.03125,1.078125 0,0.84375 0.90625,1.203125 1.75,1.203125 1.421875,0 3.3125,-1.0625 3.828125,-3.125 z m 0.84375,-6.34375 c 0,-0.515625 -0.4375,-0.6875 -0.6875,-0.6875 -0.546875,0 -1.03125,0.546875 -1.03125,1 0,0.3125 0.25,0.6875 0.703125,0.6875 0.484375,0 1.015625,-0.46875 1.015625,-1 z m 0,0"
               id="path2414" />
          </symbol>
          <symbol
             style="overflow:visible"
             overflow="visible"
             id="lx-text1445-2-glyph1-0">
            <path
               style="stroke:none"
               d=""
               id="path2417" />
          </symbol>
          <symbol
             style="overflow:visible"
             overflow="visible"
             id="lx-text1445-2-glyph1-1">
            <path
               style="stroke:none"
               d="m 2.640625,-5.15625 c -0.25,0.015625 -0.296875,0.03125 -0.296875,0.171875 0,0.140625 0.0625,0.140625 0.328125,0.140625 h 0.65625 c 1.21875,0 1.765625,1 1.765625,2.375 0,1.875 -0.984375,2.375 -1.6875,2.375 -0.6875,0 -1.859375,-0.328125 -2.265625,-1.265625 0.453125,0.0625 0.875,-0.1875 0.875,-0.703125 0,-0.421875 -0.3125,-0.703125 -0.703125,-0.703125 -0.34375,0 -0.71875,0.203125 -0.71875,0.75 0,1.265625 1.265625,2.3125 2.859375,2.3125 1.703125,0 2.96875,-1.296875 2.96875,-2.75 0,-1.3125 -1.0625,-2.359375 -2.4375,-2.59375 1.25,-0.359375 2.046875,-1.40625 2.046875,-2.53125 0,-1.125 -1.171875,-1.953125 -2.5625,-1.953125 -1.4375,0 -2.5,0.875 -2.5,1.921875 0,0.5625 0.453125,0.6875 0.671875,0.6875 0.296875,0 0.640625,-0.21875 0.640625,-0.65625 0,-0.453125 -0.34375,-0.65625 -0.65625,-0.65625 -0.09375,0 -0.125,0 -0.15625,0.015625 0.546875,-0.96875 1.890625,-0.96875 1.953125,-0.96875 0.484375,0 1.40625,0.203125 1.40625,1.609375 0,0.28125 -0.03125,1.078125 -0.453125,1.703125 -0.4375,0.625 -0.921875,0.671875 -1.3125,0.6875 z m 0,0"
               id="path2420" />
          </symbol>
        </g>
      </defs>
      <g
         id="lx-text1445-2-surface1">
        <g
           style="fill:#000000;fill-opacity:1"
           id="g2429">
          <use
             height="100%"
             width="100%"
             xlink:href="#lx-text1445-2-glyph0-1"
             x="0"
             y="0"
             id="use2427" />
        </g>
        <g
           style="fill:#000000;fill-opacity:1"
           id="g2433">
          <use
             height="100%"
             width="100%"
             xlink:href="#lx-text1445-2-glyph1-1"
             x="8.3699999"
             y="3.099"
             id="use2431" />
        </g>
      </g>
    </g>
    <g
       transform="matrix(0.352778,0,0,0.352778,90.112621,196.36555)"
       id="lx-text1445-6">
      <defs
         id="defs2451">
        <g
           id="g2449">
          <symbol
             style="overflow:visible"
             overflow="visible"
             id="lx-text1445-6-glyph0-0">
            <path
               style="stroke:none"
               d=""
               id="path2437" />
          </symbol>
          <symbol
             style="overflow:visible"
             overflow="visible"
             id="lx-text1445-6-glyph0-1">
            <path
               style="stroke:none"
               d="M 7.234375,-6.546875 C 7.3125,-6.875 7.3125,-7.171875 7.3125,-7.25 c 0,-1.203125 -0.890625,-1.859375 -1.8125,-1.859375 -2.09375,0 -3.203125,3.015625 -3.203125,3.15625 0,0.109375 0.078125,0.1875 0.203125,0.1875 0.171875,0 0.1875,-0.078125 0.28125,-0.28125 0.828125,-2.015625 1.859375,-2.65625 2.65625,-2.65625 0.421875,0 0.65625,0.234375 0.65625,0.953125 0,0.5 -0.0625,0.703125 -0.140625,1.078125 l -1.96875,7.78125 c -0.390625,1.53125 -1.359375,2.6875 -2.5,2.6875 -0.078125,0 -0.515625,0 -0.90625,-0.203125 0.5,-0.109375 0.890625,-0.5 0.890625,-0.984375 0,-0.34375 -0.25,-0.671875 -0.703125,-0.671875 -0.53125,0 -1.03125,0.453125 -1.03125,1.078125 0,0.84375 0.90625,1.203125 1.75,1.203125 1.421875,0 3.3125,-1.0625 3.828125,-3.125 z m 0.84375,-6.34375 c 0,-0.515625 -0.4375,-0.6875 -0.6875,-0.6875 -0.546875,0 -1.03125,0.546875 -1.03125,1 0,0.3125 0.25,0.6875 0.703125,0.6875 0.484375,0 1.015625,-0.46875 1.015625,-1 z m 0,0"
               id="path2440" />
          </symbol>
          <symbol
             style="overflow:visible"
             overflow="visible"
             id="lx-text1445-6-glyph1-0">
            <path
               style="stroke:none"
               d=""
               id="path2443" />
          </symbol>
          <symbol
             style="overflow:visible"
             overflow="visible"
             id="lx-text1445-6-glyph1-1">
            <path
               style="stroke:none"
               d="m 5.171875,-9.34375 c 0,-0.265625 0,-0.34375 -0.1875,-0.34375 -0.125,0 -0.171875,0 -0.28125,0.171875 l -4.3125,6.703125 v 0.421875 H 4.15625 v 1.296875 c 0,0.53125 -0.03125,0.671875 -1.078125,0.671875 H 2.796875 V 0 C 3.125,-0.03125 4.265625,-0.03125 4.65625,-0.03125 c 0.40625,0 1.546875,0 1.890625,0.03125 V -0.421875 H 6.25 c -1.03125,0 -1.078125,-0.140625 -1.078125,-0.671875 V -2.390625 H 6.625 V -2.8125 H 5.171875 Z m -0.9375,1.125 V -2.8125 H 0.75 Z m 0,0"
               id="path2446" />
          </symbol>
        </g>
      </defs>
      <g
         id="lx-text1445-6-surface1">
        <g
           style="fill:#000000;fill-opacity:1"
           id="g2455">
          <use
             height="100%"
             width="100%"
             xlink:href="#lx-text1445-6-glyph0-1"
             x="0"
             y="0"
             id="use2453" />
        </g>
        <g
           style="fill:#000000;fill-opacity:1"
           id="g2459">
          <use
             height="100%"
             width="100%"
             xlink:href="#lx-text1445-6-glyph1-1"
             x="8.3699999"
             y="3.099"
             id="use2457" />
        </g>
      </g>
    </g>
    <g
       transform="matrix(0.352778,0,0,0.352778,141.32839,183.51437)"
       id="lx-text1445-8">
      <defs
         id="defs2477">
        <g
           id="g2475">
          <symbol
             style="overflow:visible"
             overflow="visible"
             id="lx-text1445-8-glyph0-0">
            <path
               style="stroke:none"
               d=""
               id="path2463" />
          </symbol>
          <symbol
             style="overflow:visible"
             overflow="visible"
             id="lx-text1445-8-glyph0-1">
            <path
               style="stroke:none"
               d="M 7.234375,-6.546875 C 7.3125,-6.875 7.3125,-7.171875 7.3125,-7.25 c 0,-1.203125 -0.890625,-1.859375 -1.8125,-1.859375 -2.09375,0 -3.203125,3.015625 -3.203125,3.15625 0,0.109375 0.078125,0.1875 0.203125,0.1875 0.171875,0 0.1875,-0.078125 0.28125,-0.28125 0.828125,-2.015625 1.859375,-2.65625 2.65625,-2.65625 0.421875,0 0.65625,0.234375 0.65625,0.953125 0,0.5 -0.0625,0.703125 -0.140625,1.078125 l -1.96875,7.78125 c -0.390625,1.53125 -1.359375,2.6875 -2.5,2.6875 -0.078125,0 -0.515625,0 -0.90625,-0.203125 0.5,-0.109375 0.890625,-0.5 0.890625,-0.984375 0,-0.34375 -0.25,-0.671875 -0.703125,-0.671875 -0.53125,0 -1.03125,0.453125 -1.03125,1.078125 0,0.84375 0.90625,1.203125 1.75,1.203125 1.421875,0 3.3125,-1.0625 3.828125,-3.125 z m 0.84375,-6.34375 c 0,-0.515625 -0.4375,-0.6875 -0.6875,-0.6875 -0.546875,0 -1.03125,0.546875 -1.03125,1 0,0.3125 0.25,0.6875 0.703125,0.6875 0.484375,0 1.015625,-0.46875 1.015625,-1 z m 0,0"
               id="path2466" />
          </symbol>
          <symbol
             style="overflow:visible"
             overflow="visible"
             id="lx-text1445-8-glyph1-0">
            <path
               style="stroke:none"
               d=""
               id="path2469" />
          </symbol>
          <symbol
             style="overflow:visible"
             overflow="visible"
             id="lx-text1445-8-glyph1-1">
            <path
               style="stroke:none"
               d="m 1.765625,-4.984375 c 0,-3.640625 1.765625,-4.203125 2.53125,-4.203125 0.515625,0 1.03125,0.15625 1.3125,0.578125 -0.171875,0 -0.71875,0 -0.71875,0.59375 0,0.3125 0.21875,0.578125 0.59375,0.578125 0.359375,0 0.59375,-0.203125 0.59375,-0.625 0,-0.75 -0.546875,-1.46875 -1.796875,-1.46875 -1.796875,0 -3.6875,1.84375 -3.6875,5 0,3.9375 1.71875,4.828125 2.9375,4.828125 1.5625,0 2.890625,-1.359375 2.890625,-3.21875 0,-1.90625 -1.328125,-3.1875 -2.765625,-3.1875 -1.28125,0 -1.75,1.109375 -1.890625,1.5 z M 3.53125,-0.09375 c -0.90625,0 -1.34375,-0.796875 -1.46875,-1.09375 -0.125,-0.375 -0.265625,-1.078125 -0.265625,-2.078125 0,-1.140625 0.515625,-2.5625 1.796875,-2.5625 0.796875,0 1.21875,0.53125 1.421875,1.015625 C 5.25,-4.28125 5.25,-3.5625 5.25,-2.9375 c 0,0.734375 0,1.375 -0.265625,1.921875 -0.359375,0.6875 -0.875,0.921875 -1.453125,0.921875 z m 0,0"
               id="path2472" />
          </symbol>
        </g>
      </defs>
      <g
         id="lx-text1445-8-surface1">
        <g
           style="fill:#000000;fill-opacity:1"
           id="g2481">
          <use
             height="100%"
             width="100%"
             xlink:href="#lx-text1445-8-glyph0-1"
             x="0"
             y="0"
             id="use2479" />
        </g>
        <g
           style="fill:#000000;fill-opacity:1"
           id="g2485">
          <use
             height="100%"
             width="100%"
             xlink:href="#lx-text1445-8-glyph1-1"
             x="8.3699999"
             y="3.099"
             id="use2483" />
        </g>
      </g>
    </g>
  </g>
</svg>
