<?xml version="1.0" encoding="UTF-8" standalone="no"?>
<svg
   xmlns:rendltx="http://NOTSET"
   xmlns:dc="http://purl.org/dc/elements/1.1/"
   xmlns:cc="http://creativecommons.org/ns#"
   xmlns:rdf="http://www.w3.org/1999/02/22-rdf-syntax-ns#"
   xmlns:svg="http://www.w3.org/2000/svg"
   xmlns="http://www.w3.org/2000/svg"
   xmlns:xlink="http://www.w3.org/1999/xlink"
   id="svg8"
   version="1.1"
   viewBox="0 0 64.097245 29.826586"
   height="29.826586mm"
   width="64.097244mm">
  <defs
     id="defs2">
    <marker
       style="overflow:visible"
       id="marker1135"
       refX="0"
       refY="0"
       orient="auto">
      <path
         transform="matrix(0.4,0,0,0.4,2.96,0.4)"
         style="fill:#000000;fill-opacity:1;fill-rule:evenodd;stroke:#000000;stroke-width:1.00000003pt;stroke-opacity:1"
         d="m -2.5,-1 c 0,2.76 -2.24,5 -5,5 -2.76,0 -5,-2.24 -5,-5 0,-2.76 2.24,-5 5,-5 2.76,0 5,2.24 5,5 z"
         id="path1133" />
    </marker>
    <marker
       style="overflow:visible"
       id="marker1101"
       refX="0"
       refY="0"
       orient="auto">
      <path
         transform="matrix(0.4,0,0,0.4,2.96,0.4)"
         style="fill:#000000;fill-opacity:1;fill-rule:evenodd;stroke:#000000;stroke-width:1.00000003pt;stroke-opacity:1"
         d="m -2.5,-1 c 0,2.76 -2.24,5 -5,5 -2.76,0 -5,-2.24 -5,-5 0,-2.76 2.24,-5 5,-5 2.76,0 5,2.24 5,5 z"
         id="path1099" />
    </marker>
    <marker
       style="overflow:visible"
       id="DotM"
       refX="0"
       refY="0"
       orient="auto">
      <path
         transform="matrix(0.4,0,0,0.4,2.96,0.4)"
         style="fill:#000000;fill-opacity:1;fill-rule:evenodd;stroke:#000000;stroke-width:1.00000003pt;stroke-opacity:1"
         d="m -2.5,-1 c 0,2.76 -2.24,5 -5,5 -2.76,0 -5,-2.24 -5,-5 0,-2.76 2.24,-5 5,-5 2.76,0 5,2.24 5,5 z"
         id="path881" />
    </marker>
  </defs>
  <metadata
     id="metadata5">
    <rdf:RDF>
      <cc:Work
         rdf:about="">
        <dc:format>image/svg+xml</dc:format>
        <dc:type
           rdf:resource="http://purl.org/dc/dcmitype/StillImage" />
        <dc:title></dc:title>
      </cc:Work>
    </rdf:RDF>
  </metadata>
  <g
     transform="translate(-28.292353,-150.44673)"
     style="opacity:1"
     id="layer1">
    <path
       id="path815"
       d="m 32.294179,159.25126 32.696719,13.18926 24.980336,-21.2661"
       style="fill:none;stroke:#000000;stroke-width:0.32501784;stroke-linecap:round;stroke-linejoin:round;stroke-miterlimit:4;stroke-dasharray:none;stroke-opacity:1;marker-start:url(#DotM);marker-mid:url(#marker1101);marker-end:url(#marker1135)" />
  </g>
  <g
     transform="translate(-28.292353,-150.44673)"
     style="display:none"
     id="layer2">
    <text
       id="text1577"
       y="172.64583"
       x="27.78125"
       style="font-style:normal;font-weight:normal;font-size:10.58333302px;line-height:1.25;font-family:sans-serif;letter-spacing:0px;word-spacing:0px;opacity:1;fill:#000000;fill-opacity:1;stroke:none;stroke-width:0.26458332"
       xml:space="preserve"><tspan
         id="tspan1579"
         style="font-size:5.64444447px;stroke-width:0.26458332"
         y="172.64583"
         x="27.78125">$ j_1 $</tspan></text>
    <text
       id="text1577-5"
       y="143.24066"
       x="52.586529"
       style="font-style:normal;font-weight:normal;font-size:10.58333302px;line-height:1.25;font-family:sans-serif;letter-spacing:0px;word-spacing:0px;opacity:1;fill:#000000;fill-opacity:1;stroke:none;stroke-width:0.26458332"
       xml:space="preserve"><tspan
         id="tspan1579-5"
         style="font-size:5.64444447px;stroke-width:0.26458332"
         y="143.24066"
         x="52.586529">$ j_2 $</tspan></text>
    <text
       id="text1577-0"
       y="157.98174"
       x="87.171349"
       style="font-style:normal;font-weight:normal;font-size:10.58333302px;line-height:1.25;font-family:sans-serif;letter-spacing:0px;word-spacing:0px;opacity:1;fill:#000000;fill-opacity:1;stroke:none;stroke-width:0.26458332"
       xml:space="preserve"><tspan
         id="tspan1579-7"
         style="font-size:5.64444447px;stroke-width:0.26458332"
         y="157.98174"
         x="87.171349">$ j_3 $</tspan></text>
  </g>
  <g
     transform="translate(-28.292353,-150.44673)"
     id="ltx-render-layer"
     rendltx:preamble=""
     rendltx:scale="1.0"
     rendltx:depth="0"
     rendltx:fontsize="20"
     rendltx:newline="False"
     rendltx:math="False">
    <g
       transform="matrix(0.352778,0,0,0.352778,28.38606,165.3863)"
       id="lx-text1577">
      <defs
         id="defs1836">
        <g
           id="g1834">
          <symbol
             style="overflow:visible"
             overflow="visible"
             id="lx-text1577-glyph0-0">
            <path
               style="stroke:none"
               d=""
               id="path1822" />
          </symbol>
          <symbol
             style="overflow:visible"
             overflow="visible"
             id="lx-text1577-glyph0-1">
            <path
               style="stroke:none"
               d="M 7.234375,-6.546875 C 7.3125,-6.875 7.3125,-7.171875 7.3125,-7.25 c 0,-1.203125 -0.890625,-1.859375 -1.8125,-1.859375 -2.09375,0 -3.203125,3.015625 -3.203125,3.15625 0,0.109375 0.078125,0.1875 0.203125,0.1875 0.171875,0 0.1875,-0.078125 0.28125,-0.28125 0.828125,-2.015625 1.859375,-2.65625 2.65625,-2.65625 0.421875,0 0.65625,0.234375 0.65625,0.953125 0,0.5 -0.0625,0.703125 -0.140625,1.078125 l -1.96875,7.78125 c -0.390625,1.53125 -1.359375,2.6875 -2.5,2.6875 -0.078125,0 -0.515625,0 -0.90625,-0.203125 0.5,-0.109375 0.890625,-0.5 0.890625,-0.984375 0,-0.34375 -0.25,-0.671875 -0.703125,-0.671875 -0.53125,0 -1.03125,0.453125 -1.03125,1.078125 0,0.84375 0.90625,1.203125 1.75,1.203125 1.421875,0 3.3125,-1.0625 3.828125,-3.125 z m 0.84375,-6.34375 c 0,-0.515625 -0.4375,-0.6875 -0.6875,-0.6875 -0.546875,0 -1.03125,0.546875 -1.03125,1 0,0.3125 0.25,0.6875 0.703125,0.6875 0.484375,0 1.015625,-0.46875 1.015625,-1 z m 0,0"
               id="path1825" />
          </symbol>
          <symbol
             style="overflow:visible"
             overflow="visible"
             id="lx-text1577-glyph1-0">
            <path
               style="stroke:none"
               d=""
               id="path1828" />
          </symbol>
          <symbol
             style="overflow:visible"
             overflow="visible"
             id="lx-text1577-glyph1-1">
            <path
               style="stroke:none"
               d="m 4.125,-9.1875 c 0,-0.34375 0,-0.34375 -0.28125,-0.34375 C 3.5,-9.15625 2.78125,-8.625 1.3125,-8.625 v 0.421875 c 0.328125,0 1.046875,0 1.828125,-0.375 v 7.46875 c 0,0.515625 -0.046875,0.6875 -1.296875,0.6875 H 1.390625 V 0 c 0.390625,-0.03125 1.78125,-0.03125 2.25,-0.03125 0.46875,0 1.859375,0 2.234375,0.03125 V -0.421875 H 5.4375 c -1.265625,0 -1.3125,-0.171875 -1.3125,-0.6875 z m 0,0"
               id="path1831" />
          </symbol>
        </g>
      </defs>
      <g
         id="lx-text1577-surface1">
        <g
           style="fill:#000000;fill-opacity:1"
           id="g1840">
          <use
             height="100%"
             width="100%"
             xlink:href="#lx-text1577-glyph0-1"
             x="0"
             y="0"
             id="use1838" />
        </g>
        <g
           style="fill:#000000;fill-opacity:1"
           id="g1844">
          <use
             height="100%"
             width="100%"
             xlink:href="#lx-text1577-glyph1-1"
             x="8.3699999"
             y="3.099"
             id="use1842" />
        </g>
      </g>
    </g>
    <g
       transform="matrix(0.352778,0,0,0.352778,63.519152,178.78503)"
       id="lx-text1577-5">
      <defs
         id="defs1862">
        <g
           id="g1860">
          <symbol
             style="overflow:visible"
             overflow="visible"
             id="lx-text1577-5-glyph0-0">
            <path
               style="stroke:none"
               d=""
               id="path1848" />
          </symbol>
          <symbol
             style="overflow:visible"
             overflow="visible"
             id="lx-text1577-5-glyph0-1">
            <path
               style="stroke:none"
               d="M 7.234375,-6.546875 C 7.3125,-6.875 7.3125,-7.171875 7.3125,-7.25 c 0,-1.203125 -0.890625,-1.859375 -1.8125,-1.859375 -2.09375,0 -3.203125,3.015625 -3.203125,3.15625 0,0.109375 0.078125,0.1875 0.203125,0.1875 0.171875,0 0.1875,-0.078125 0.28125,-0.28125 0.828125,-2.015625 1.859375,-2.65625 2.65625,-2.65625 0.421875,0 0.65625,0.234375 0.65625,0.953125 0,0.5 -0.0625,0.703125 -0.140625,1.078125 l -1.96875,7.78125 c -0.390625,1.53125 -1.359375,2.6875 -2.5,2.6875 -0.078125,0 -0.515625,0 -0.90625,-0.203125 0.5,-0.109375 0.890625,-0.5 0.890625,-0.984375 0,-0.34375 -0.25,-0.671875 -0.703125,-0.671875 -0.53125,0 -1.03125,0.453125 -1.03125,1.078125 0,0.84375 0.90625,1.203125 1.75,1.203125 1.421875,0 3.3125,-1.0625 3.828125,-3.125 z m 0.84375,-6.34375 c 0,-0.515625 -0.4375,-0.6875 -0.6875,-0.6875 -0.546875,0 -1.03125,0.546875 -1.03125,1 0,0.3125 0.25,0.6875 0.703125,0.6875 0.484375,0 1.015625,-0.46875 1.015625,-1 z m 0,0"
               id="path1851" />
          </symbol>
          <symbol
             style="overflow:visible"
             overflow="visible"
             id="lx-text1577-5-glyph1-0">
            <path
               style="stroke:none"
               d=""
               id="path1854" />
          </symbol>
          <symbol
             style="overflow:visible"
             overflow="visible"
             id="lx-text1577-5-glyph1-1">
            <path
               style="stroke:none"
               d="M 6.3125,-2.40625 H 6 c -0.046875,0.234375 -0.15625,1.03125 -0.3125,1.265625 -0.09375,0.125 -0.90625,0.125 -1.34375,0.125 H 1.6875 c 0.390625,-0.328125 1.265625,-1.25 1.640625,-1.59375 2.1875,-2.015625 2.984375,-2.75 2.984375,-4.171875 0,-1.65625 -1.3125,-2.75 -2.96875,-2.75 -1.671875,0 -2.640625,1.40625 -2.640625,2.640625 0,0.734375 0.625,0.734375 0.671875,0.734375 0.296875,0 0.671875,-0.21875 0.671875,-0.671875 C 2.046875,-7.234375 1.78125,-7.5 1.375,-7.5 1.25,-7.5 1.21875,-7.5 1.171875,-7.484375 1.453125,-8.46875 2.21875,-9.125 3.15625,-9.125 4.375,-9.125 5.125,-8.109375 5.125,-6.78125 5.125,-5.5625 4.421875,-4.5 3.59375,-3.578125 L 0.703125,-0.34375 V 0 H 5.9375 Z m 0,0"
               id="path1857" />
          </symbol>
        </g>
      </defs>
      <g
         id="lx-text1577-5-surface1">
        <g
           style="fill:#000000;fill-opacity:1"
           id="g1866">
          <use
             height="100%"
             width="100%"
             xlink:href="#lx-text1577-5-glyph0-1"
             x="0"
             y="0"
             id="use1864" />
        </g>
        <g
           style="fill:#000000;fill-opacity:1"
           id="g1870">
          <use
             height="100%"
             width="100%"
             xlink:href="#lx-text1577-5-glyph1-1"
             x="8.3699999"
             y="3.099"
             id="use1868" />
        </g>
      </g>
    </g>
    <g
       transform="matrix(0.352778,0,0,0.352778,87.171349,157.98174)"
       id="lx-text1577-0">
      <defs
         id="defs1888">
        <g
           id="g1886">
          <symbol
             style="overflow:visible"
             overflow="visible"
             id="lx-text1577-0-glyph0-0">
            <path
               style="stroke:none"
               d=""
               id="path1874" />
          </symbol>
          <symbol
             style="overflow:visible"
             overflow="visible"
             id="lx-text1577-0-glyph0-1">
            <path
               style="stroke:none"
               d="M 7.234375,-6.546875 C 7.3125,-6.875 7.3125,-7.171875 7.3125,-7.25 c 0,-1.203125 -0.890625,-1.859375 -1.8125,-1.859375 -2.09375,0 -3.203125,3.015625 -3.203125,3.15625 0,0.109375 0.078125,0.1875 0.203125,0.1875 0.171875,0 0.1875,-0.078125 0.28125,-0.28125 0.828125,-2.015625 1.859375,-2.65625 2.65625,-2.65625 0.421875,0 0.65625,0.234375 0.65625,0.953125 0,0.5 -0.0625,0.703125 -0.140625,1.078125 l -1.96875,7.78125 c -0.390625,1.53125 -1.359375,2.6875 -2.5,2.6875 -0.078125,0 -0.515625,0 -0.90625,-0.203125 0.5,-0.109375 0.890625,-0.5 0.890625,-0.984375 0,-0.34375 -0.25,-0.671875 -0.703125,-0.671875 -0.53125,0 -1.03125,0.453125 -1.03125,1.078125 0,0.84375 0.90625,1.203125 1.75,1.203125 1.421875,0 3.3125,-1.0625 3.828125,-3.125 z m 0.84375,-6.34375 c 0,-0.515625 -0.4375,-0.6875 -0.6875,-0.6875 -0.546875,0 -1.03125,0.546875 -1.03125,1 0,0.3125 0.25,0.6875 0.703125,0.6875 0.484375,0 1.015625,-0.46875 1.015625,-1 z m 0,0"
               id="path1877" />
          </symbol>
          <symbol
             style="overflow:visible"
             overflow="visible"
             id="lx-text1577-0-glyph1-0">
            <path
               style="stroke:none"
               d=""
               id="path1880" />
          </symbol>
          <symbol
             style="overflow:visible"
             overflow="visible"
             id="lx-text1577-0-glyph1-1">
            <path
               style="stroke:none"
               d="m 2.640625,-5.15625 c -0.25,0.015625 -0.296875,0.03125 -0.296875,0.171875 0,0.140625 0.0625,0.140625 0.328125,0.140625 h 0.65625 c 1.21875,0 1.765625,1 1.765625,2.375 0,1.875 -0.984375,2.375 -1.6875,2.375 -0.6875,0 -1.859375,-0.328125 -2.265625,-1.265625 0.453125,0.0625 0.875,-0.1875 0.875,-0.703125 0,-0.421875 -0.3125,-0.703125 -0.703125,-0.703125 -0.34375,0 -0.71875,0.203125 -0.71875,0.75 0,1.265625 1.265625,2.3125 2.859375,2.3125 1.703125,0 2.96875,-1.296875 2.96875,-2.75 0,-1.3125 -1.0625,-2.359375 -2.4375,-2.59375 1.25,-0.359375 2.046875,-1.40625 2.046875,-2.53125 0,-1.125 -1.171875,-1.953125 -2.5625,-1.953125 -1.4375,0 -2.5,0.875 -2.5,1.921875 0,0.5625 0.453125,0.6875 0.671875,0.6875 0.296875,0 0.640625,-0.21875 0.640625,-0.65625 0,-0.453125 -0.34375,-0.65625 -0.65625,-0.65625 -0.09375,0 -0.125,0 -0.15625,0.015625 0.546875,-0.96875 1.890625,-0.96875 1.953125,-0.96875 0.484375,0 1.40625,0.203125 1.40625,1.609375 0,0.28125 -0.03125,1.078125 -0.453125,1.703125 -0.4375,0.625 -0.921875,0.671875 -1.3125,0.6875 z m 0,0"
               id="path1883" />
          </symbol>
        </g>
      </defs>
      <g
         id="lx-text1577-0-surface1">
        <g
           style="fill:#000000;fill-opacity:1"
           id="g1892">
          <use
             height="100%"
             width="100%"
             xlink:href="#lx-text1577-0-glyph0-1"
             x="0"
             y="0"
             id="use1890" />
        </g>
        <g
           style="fill:#000000;fill-opacity:1"
           id="g1896">
          <use
             height="100%"
             width="100%"
             xlink:href="#lx-text1577-0-glyph1-1"
             x="8.3699999"
             y="3.099"
             id="use1894" />
        </g>
      </g>
    </g>
  </g>
</svg>
